<svg xmlns="http://www.w3.org/2000/svg" xmlns:xlink="http://www.w3.org/1999/xlink" version="1.1" width="256" height="256" viewBox="0 0 256 256" xml:space="preserve">

<defs>
</defs>
<g style="stroke: none; stroke-width: 0; stroke-dasharray: none; stroke-linecap: butt; stroke-linejoin: miter; stroke-miterlimit: 10; fill: none; fill-rule: nonzero; opacity: 1;" transform="translate(1.4065934065934016 1.4065934065934016) scale(2.81 2.81)" >
	<path d="M 30.2 29.267 h -4.085 c -0.88 0 -1.594 -0.714 -1.594 -1.594 v -6.72 c 0 -0.88 0.714 -1.594 1.594 -1.594 h 2.934 C 30.772 22.42 31.261 25.704 30.2 29.267 z" style="stroke: none; stroke-width: 1; stroke-dasharray: none; stroke-linecap: butt; stroke-linejoin: miter; stroke-miterlimit: 10; fill: rgb(38,111,183); fill-rule: nonzero; opacity: 1;" transform=" matrix(1 0 0 1 0 0) " stroke-linecap="round" />
	<path d="M 54.174 29.267 h 4.087 c 0.88 0 1.594 -0.714 1.594 -1.594 v -6.72 c 0 -0.88 -0.714 -1.594 -1.594 -1.594 h -2.934 C 52.711 22.662 52.327 25.964 54.174 29.267 z" style="stroke: none; stroke-width: 1; stroke-dasharray: none; stroke-linecap: butt; stroke-linejoin: miter; stroke-miterlimit: 10; fill: rgb(38,111,183); fill-rule: nonzero; opacity: 1;" transform=" matrix(1 0 0 1 0 0) " stroke-linecap="round" />
	<polyline points="58.42,68.88 42.19,64.23 25.9,90 " style="stroke: none; stroke-width: 1; stroke-dasharray: none; stroke-linecap: butt; stroke-linejoin: miter; stroke-miterlimit: 10; fill: rgb(242,194,178); fill-rule: nonzero; opacity: 1;" transform="  matrix(1 0 0 1 0 0) "/>
	<path d="M 69.782 57.97 v -7.391 L 54.28 41.485 c -2.204 -0.86 -3.7 -2.867 -3.7 -5.15 l -0.044 -1.929 H 33.843 l -0.047 1.929 c 0 2.283 -1.496 4.29 -3.7 5.15 l -15.501 9.094 v 7.391 v 29.799 c 0 1.232 0.999 2.231 2.231 2.231 h 9.073 l 16.289 -8.436 l 16.232 -5.423 h 13.219 c 2.678 0 4.499 -2.718 3.48 -5.195 L 69.782 57.97 z" style="stroke: none; stroke-width: 1; stroke-dasharray: none; stroke-linecap: butt; stroke-linejoin: miter; stroke-miterlimit: 10; fill: rgb(242,194,178); fill-rule: nonzero; opacity: 1;" transform=" matrix(1 0 0 1 0 0) " stroke-linecap="round" />
	<path d="M 69.724 57.97 h -6.785 c -2.494 0 -4.515 1.863 -4.512 4.161 c 0.003 2.426 0.005 19.471 -0.002 25.646 c -0.001 1.231 -1 2.223 -2.231 2.223 H 42.637 H 25.899 c -0.013 -0.304 -0.012 -24.917 -0.007 -27.869 c 0.003 -2.298 -2.018 -4.161 -4.512 -4.161 h -6.785 v -7.391 c 0 -3.676 2.851 -6.826 6.775 -7.487 l 7.449 -1.255 c 0.446 -0.075 0.874 -0.194 1.277 -0.352 l -0.002 -0.005 c 8.089 7.969 16.151 7.943 24.189 0 l -0.002 0.005 c 0.404 0.158 0.831 0.277 1.277 0.352 l 7.449 1.255 c 3.924 0.661 6.775 3.812 6.775 7.487 v 7.391 L 69.724 57.97 z" style="stroke: none; stroke-width: 1; stroke-dasharray: none; stroke-linecap: butt; stroke-linejoin: miter; stroke-miterlimit: 10; fill: rgb(38,111,183); fill-rule: nonzero; opacity: 1;" transform=" matrix(1 0 0 1 0 0) " stroke-linecap="round" />
	<path d="M 53.156 3.907 L 28.944 16.792 l 0.696 9.352 c 0.237 2.829 1.323 5.614 2.629 8.411 c 0.332 0.767 0.704 1.236 1.451 2.321 c 1.341 1.798 2.991 2.3 5.328 3.082 c 1.237 0.441 2.193 0.421 3.14 0.42 c 0.947 0 1.903 0.02 3.14 -0.42 c 2.337 -0.782 3.987 -1.284 5.328 -3.082 c 0.746 -1.085 1.119 -1.554 1.451 -2.321 c 1.306 -2.798 2.392 -5.582 2.629 -8.411 l 0.696 -9.352 L 53.156 3.907 z" style="stroke: none; stroke-width: 1; stroke-dasharray: none; stroke-linecap: butt; stroke-linejoin: miter; stroke-miterlimit: 10; fill: rgb(250,206,191); fill-rule: nonzero; opacity: 1;" transform=" matrix(1 0 0 1 0 0) " stroke-linecap="round" />
	<path d="M 50.309 35.839 h -4.896 c -0.423 0 -0.765 -0.342 -0.765 -0.765 c 0 -0.423 0.342 -0.765 0.765 -0.765 h 4.896 c 2.78 0 5.041 -2.262 5.041 -5.041 c 0 -0.423 0.342 -0.765 0.765 -0.765 c 0.423 0 0.765 0.343 0.765 0.765 C 56.881 32.891 53.932 35.839 50.309 35.839 z" style="stroke: none; stroke-width: 1; stroke-dasharray: none; stroke-linecap: butt; stroke-linejoin: miter; stroke-miterlimit: 10; fill: rgb(38,111,183); fill-rule: nonzero; opacity: 1;" transform=" matrix(1 0 0 1 0 0) " stroke-linecap="round" />
	<path d="M 33.428 21.691 c 0.729 -1.069 2.001 -1.611 3.282 -1.621 c 0.641 -0.001 1.28 0.143 1.849 0.413 c 0.566 0.277 1.075 0.66 1.434 1.208 c -0.654 0.022 -1.21 -0.027 -1.746 -0.046 c -0.533 -0.027 -1.035 -0.043 -1.536 -0.045 c -0.501 0 -1.003 0.016 -1.537 0.043 C 34.637 21.661 34.081 21.711 33.428 21.691 z" style="stroke: none; stroke-width: 1; stroke-dasharray: none; stroke-linecap: butt; stroke-linejoin: miter; stroke-miterlimit: 10; fill: rgb(220,102,65); fill-rule: nonzero; opacity: 1;" transform=" matrix(1 0 0 1 0 0) " stroke-linecap="round" />
	<path d="M 42.637 21.645 c 0.729 -1.069 2.001 -1.611 3.282 -1.621 c 0.641 -0.001 1.28 0.143 1.849 0.413 c 0.566 0.277 1.075 0.66 1.434 1.208 c -0.654 0.022 -1.21 -0.027 -1.746 -0.046 c -0.533 -0.027 -1.035 -0.043 -1.536 -0.045 c -0.501 0 -1.003 0.016 -1.537 0.043 C 43.846 21.616 43.29 21.665 42.637 21.645 z" style="stroke: none; stroke-width: 1; stroke-dasharray: none; stroke-linecap: butt; stroke-linejoin: miter; stroke-miterlimit: 10; fill: rgb(220,102,65); fill-rule: nonzero; opacity: 1;" transform=" matrix(1 0 0 1 0 0) " stroke-linecap="round" />
	<path d="M 37.617 30.543 c 0.847 0.372 1.6 0.76 2.358 1.024 c 0.752 0.272 1.484 0.426 2.21 0.43 c 0.726 -0.008 1.457 -0.164 2.21 -0.436 c 0.758 -0.265 1.513 -0.65 2.363 -1.018 c -0.406 0.829 -1.024 1.533 -1.801 2.083 c -0.776 0.542 -1.754 0.899 -2.77 0.902 c -1.016 -0.002 -1.996 -0.357 -2.772 -0.9 C 38.639 32.077 38.022 31.373 37.617 30.543 z" style="stroke: none; stroke-width: 1; stroke-dasharray: none; stroke-linecap: butt; stroke-linejoin: miter; stroke-miterlimit: 10; fill: rgb(220,102,65); fill-rule: nonzero; opacity: 1;" transform=" matrix(1 0 0 1 0 0) " stroke-linecap="round" />
	<path d="M 55.783 19.556 C 59.002 5.185 51.352 0 42.365 0 h 0 c -7.809 0 -15.878 5.701 -15.533 16.919 c 11.202 1.007 22.041 -3.255 26.325 -13.013 C 48.872 11.953 52.051 16.686 55.783 19.556 z" style="stroke: none; stroke-width: 1; stroke-dasharray: none; stroke-linecap: butt; stroke-linejoin: miter; stroke-miterlimit: 10; fill: rgb(243,170,0); fill-rule: nonzero; opacity: 1;" transform=" matrix(1 0 0 1 0 0) " stroke-linecap="round" />
	<path d="M 29.376 23.377 c -0.936 -3.536 -1.276 -6.536 -0.455 -8.492 h 1.954 C 29.762 17.125 29.262 19.956 29.376 23.377 z" style="stroke: none; stroke-width: 1; stroke-dasharray: none; stroke-linecap: butt; stroke-linejoin: miter; stroke-miterlimit: 10; fill: rgb(243,170,0); fill-rule: nonzero; opacity: 1;" transform=" matrix(1 0 0 1 0 0) " stroke-linecap="round" />
	<path d="M 54.932 23.515 c 0.936 -3.536 1.437 -6.674 0.616 -8.63 h -1.954 C 54.707 17.125 55.045 20.094 54.932 23.515 z" style="stroke: none; stroke-width: 1; stroke-dasharray: none; stroke-linecap: butt; stroke-linejoin: miter; stroke-miterlimit: 10; fill: rgb(243,170,0); fill-rule: nonzero; opacity: 1;" transform=" matrix(1 0 0 1 0 0) " stroke-linecap="round" />
	<path d="M 72.962 72.863 c 0.321 1.677 -0.964 3.231 -2.672 3.231 H 50.324 L 47.3 76.226 c -1.184 0.103 -1.601 0.427 -2.207 0.854 h 0 c -0.926 0.652 -2.064 1.007 -3.236 1.007 H 40.99 c -0.907 0 -1.704 -0.545 -1.955 -1.337 l -1.853 -5.839 c -0.375 -1.182 0.601 -2.361 1.955 -2.36 l 3.158 0 v -4.527 c 0 -0.726 0.648 -1.315 1.448 -1.315 l 0 0 c 0.75 0 1.38 0.521 1.442 1.2 c 0.24 2.646 0.688 4.694 1.99 4.749 l 3.059 -0.241 l 9.475 -0.675 c 1.5 -0.107 2.576 -1.49 2.312 -2.97 l -0.839 -4.694 c 0.428 -2.129 1.61 1.156 2.814 0.072 l 3.131 -0.229 L 72.962 72.863 z" style="stroke: none; stroke-width: 1; stroke-dasharray: none; stroke-linecap: butt; stroke-linejoin: miter; stroke-miterlimit: 10; fill: rgb(242,194,178); fill-rule: nonzero; opacity: 1;" transform=" matrix(1 0 0 1 0 0) " stroke-linecap="round" />
</g>
</svg>